<svg width="32" height="32" viewBox="0 0 32 32" fill="none" xmlns="http://www.w3.org/2000/svg">
<path d="M16.128 11.536C16.544 11.536 16.9013 11.3867 17.2 11.088C17.4987 10.7893 17.648 10.432 17.648 10.016C17.648 9.6 17.4987 9.24267 17.2 8.944C16.9013 8.64533 16.544 8.496 16.128 8.496C15.712 8.496 15.3573 8.64533 15.064 8.944C14.7707 9.24267 14.624 9.6 14.624 10.016C14.624 10.432 14.7707 10.7893 15.064 11.088C15.3573 11.3867 15.712 11.536 16.128 11.536ZM8.448 3.968C8.26667 3.968 8.088 4.00533 7.912 4.08C7.736 4.15467 7.58667 4.25333 7.464 4.376C7.34133 4.49867 7.24267 4.648 7.168 4.824C7.09333 5 7.056 5.17867 7.056 5.36V27.776C7.056 28.16 7.192 28.488 7.464 28.76C7.736 29.032 8.064 29.168 8.448 29.168H23.808C24.192 29.168 24.52 29.032 24.792 28.76C25.064 28.488 25.2 28.16 25.2 27.776V5.36C25.2 4.976 25.064 4.648 24.792 4.376C24.52 4.104 24.192 3.968 23.808 3.968H8.448ZM8.064 27.776V5.36C8.064 5.25333 8.10133 5.16267 8.176 5.088C8.25067 5.01333 8.34133 4.976 8.448 4.976H23.808C23.872 4.976 23.9333 4.99467 23.992 5.032C24.0507 5.06933 24.0987 5.11733 24.136 5.176C24.1733 5.23467 24.192 5.296 24.192 5.36V27.776C24.192 27.8827 24.1547 27.9733 24.08 28.048C24.0053 28.1227 23.9147 28.16 23.808 28.16H8.448C8.34133 28.16 8.25067 28.1227 8.176 28.048C8.10133 27.9733 8.064 27.8827 8.064 27.776ZM16.136 15.056C14.744 15.056 13.5547 15.5493 12.568 16.536C11.5813 17.5227 11.088 18.7093 11.088 20.096C11.088 21.4827 11.5813 22.6693 12.568 23.656C13.5547 24.6427 14.744 25.136 16.136 25.136C17.528 25.136 18.7147 24.6427 19.696 23.656C20.6773 22.6693 21.168 21.4827 21.168 20.096C21.168 18.7093 20.6773 17.5227 19.696 16.536C18.7147 15.5493 17.528 15.056 16.136 15.056ZM16.128 24.048C15.04 24.048 14.1093 23.6613 13.336 22.888C12.5627 22.1147 12.176 21.184 12.176 20.096C12.176 19.008 12.5627 18.0773 13.336 17.304C14.1093 16.5307 15.04 16.144 16.128 16.144C17.216 16.144 18.1467 16.5307 18.92 17.304C19.6933 18.0773 20.08 19.008 20.08 20.096C20.08 21.184 19.6933 22.1147 18.92 22.888C18.1467 23.6613 17.216 24.048 16.128 24.048Z" fill="black"/>
</svg>
