<svg width="2000" height="2000" viewBox="0 0 2000 2000" fill="none" xmlns="http://www.w3.org/2000/svg">
<path d="M662 1697C653.333 1697 645.833 1700.17 639.5 1706.5C633.167 1712.83 630 1720.17 630 1728.5C630 1736.83 633.167 1744.17 639.5 1750.5C645.833 1756.83 653.333 1760 662 1760L1355 1760C1360.33 1760 1365.5 1758.67 1370.5 1756C1375.5 1753.33 1379.33 1749.5 1382 1744.5C1384.67 1739.5 1386 1734.33 1386 1729C1386 1720.33 1383 1712.83 1377 1706.5C1371 1700.17 1363.67 1697 1355 1697L662 1697ZM284 311C258 311 235.667 320.333 217 339C198.333 357.667 189 379.667 189 405L189 1413C189 1439 198.333 1461.33 217 1480C235.667 1498.67 258 1508 284 1508L1732 1508C1758 1508 1780.33 1498.83 1799 1480.5C1817.67 1462.17 1827 1440 1827 1414L1827 406C1827 380 1817.67 357.667 1799 339C1780.33 320.333 1758 311 1732 311L284 311ZM252 1413L252 405C252 397 255.167 389.833 261.5 383.5C267.833 377.167 275.333 374 284 374L1732 374C1740.67 374 1748.17 377.167 1754.5 383.5C1760.83 389.833 1764 397 1764 405L1764 1413C1764 1421.67 1760.83 1429.17 1754.5 1435.5C1748.17 1441.83 1740.67 1445 1732 1445L284 1445C275.333 1445 267.833 1441.83 261.5 1435.5C255.167 1429.17 252 1421.67 252 1413Z" fill="black"/>
</svg>
