<svg width="32" height="32" viewBox="0 0 32 32" fill="none" xmlns="http://www.w3.org/2000/svg">
<path d="M25.696 23.12C26.112 23.12 26.4693 22.9707 26.768 22.672C27.0667 22.3733 27.216 22.0213 27.216 21.616L27.216 7.504C27.216 7.088 27.0667 6.73067 26.768 6.432C26.4693 6.13334 26.112 5.984 25.696 5.984L6.56 5.984C6.144 5.984 5.78667 6.13334 5.488 6.432C5.18933 6.73067 5.04 7.088 5.04 7.504L5.04 21.616C5.04 22.0213 5.18933 22.3733 5.488 22.672C5.78667 22.9707 6.144 23.12 6.56 23.12L25.696 23.12ZM26.208 7.504L26.208 21.616C26.208 21.744 26.1573 21.8587 26.056 21.96C25.9547 22.0613 25.8347 22.112 25.696 22.112L6.56 22.112C6.496 22.112 6.44 22.104 6.392 22.088C6.344 22.072 6.29867 22.048 6.256 22.016C6.21333 21.984 6.176 21.9467 6.144 21.904C6.112 21.8613 6.088 21.816 6.072 21.768C6.056 21.72 6.048 21.6693 6.048 21.616L6.048 7.504C6.048 7.36534 6.09867 7.24534 6.2 7.144C6.30133 7.04267 6.42133 6.992 6.56 6.992L25.696 6.992C25.8347 6.992 25.9547 7.04267 26.056 7.144C26.1573 7.24534 26.208 7.36534 26.208 7.504ZM2.528 26.144C2.38934 26.144 2.26934 26.1947 2.168 26.296C2.06667 26.3973 2.016 26.5147 2.016 26.648C2.016 26.7813 2.06667 26.8987 2.168 27C2.26934 27.1013 2.38934 27.152 2.528 27.152L29.728 27.152C29.8667 27.152 29.9867 27.1013 30.088 27C30.1893 26.8987 30.24 26.7813 30.24 26.648C30.24 26.5147 30.1893 26.3973 30.088 26.296C29.9867 26.1947 29.8667 26.144 29.728 26.144L2.528 26.144Z" fill="black"/>
</svg>
