<svg width="2000" height="2000" viewBox="0 0 2000 2000" fill="none" xmlns="http://www.w3.org/2000/svg">
<path d="M267 718C224.333 739.333 190.167 770 164.5 810C138.833 850 126 894.667 126 944V1448V1621C126 1642.33 133.333 1660.33 148 1675C162.667 1689.67 180.667 1697 202 1697H428C449.333 1697 467.333 1689.67 482 1675C496.667 1660.33 504 1642.33 504 1621V1448L1512 1448V1621C1512 1642.33 1519.33 1660.33 1534 1675C1548.67 1689.67 1566.67 1697 1588 1697H1814C1835.33 1697 1853.33 1689.67 1868 1675C1882.67 1660.33 1890 1642.33 1890 1621V1395V1394V944C1890 894.667 1877.17 850 1851.5 810C1825.83 770 1791.67 739.333 1749 718L1606 398C1586 352 1555.17 315.5 1513.5 288.5C1471.83 261.5 1426 248 1376 248L640 248C590 248 544.167 261.5 502.5 288.5C460.833 315.5 430 352 410 398L267 718ZM1549 423L1667 689L349 689L467 423C482.333 389 505.667 361.833 537 341.5C568.333 321.167 602.667 311 640 311L1376 311C1413.33 311 1447.67 321.167 1479 341.5C1510.33 361.833 1533.67 389 1549 423ZM1575 1621V1448H1827V1621C1827 1625 1825.83 1628.17 1823.5 1630.5C1821.17 1632.83 1818.33 1634 1815 1634H1588C1584.67 1634 1581.67 1632.83 1579 1630.5C1576.33 1628.17 1575 1625 1575 1621ZM189 1621V1448H441V1621C441 1625 439.833 1628.17 437.5 1630.5C435.167 1632.83 432 1634 428 1634H202C198 1634 194.833 1632.83 192.5 1630.5C190.167 1628.17 189 1625 189 1621ZM189 1385V944C189 909.333 197.5 877.5 214.5 848.5C231.5 819.5 254.5 796.667 283.5 780C312.5 763.333 344 755 378 755L1638 755C1690 755 1734.5 773.333 1771.5 810C1808.5 846.667 1827 891.333 1827 944V1385L189 1385ZM456.5 943C434.833 943 416.333 950.833 401 966.5C385.667 982.167 378 1000.83 378 1022.5C378 1044.17 385.667 1062.67 401 1078C416.333 1093.33 434.833 1101 456.5 1101C478.167 1101 496.833 1093.33 512.5 1078C528.167 1062.67 536 1044.17 536 1022.5C536 1000.83 528.167 982.167 512.5 966.5C496.833 950.833 478.167 943 456.5 943ZM1559 943C1545 943 1532 946.667 1520 954C1508 961.333 1498.5 971 1491.5 983C1484.5 995 1481 1008 1481 1022C1481 1044 1488.67 1062.67 1504 1078C1519.33 1093.33 1537.83 1101 1559.5 1101C1581.17 1101 1599.67 1093.33 1615 1078C1630.33 1062.67 1638 1044.17 1638 1022.5C1638 1000.83 1630.33 982.167 1615 966.5C1599.67 950.833 1581 943 1559 943Z" fill="black"/>
</svg>
