<svg width="2000" height="2000" viewBox="0 0 2000 2000" fill="none" xmlns="http://www.w3.org/2000/svg">
<path d="M346 252C320.667 252 298.667 261.333 280 280C261.333 298.667 252 321 252 347L252 1733C252 1758.33 261.333 1780.33 280 1799C298.667 1817.67 320.667 1827 346 1827L1670 1827C1695.33 1827 1717.33 1817.67 1736 1799C1754.67 1780.33 1764 1758.33 1764 1733L1764 347C1764 321 1754.67 298.667 1736 280C1717.33 261.333 1695.33 252 1670 252L346 252ZM315 1733L315 347C315 338.333 318.167 330.833 324.5 324.5C330.833 318.167 338 315 346 315L1670 315C1678 315 1685.17 318.167 1691.5 324.5C1697.83 330.833 1701 338.333 1701 347L1701 1733C1701 1741 1697.83 1748.17 1691.5 1754.5C1685.17 1760.83 1678 1764 1670 1764L346 1764C338 1764 330.833 1760.83 324.5 1754.5C318.167 1748.17 315 1741 315 1733ZM1008.5 1543C990.833 1543 976 1549.17 964 1561.5C952 1573.83 946 1588.83 946 1606.5C946 1624.17 952 1639 964 1651C976 1663 990.833 1669 1008.5 1669C1026.17 1669 1041.17 1663 1053.5 1651C1065.83 1639 1072 1624.17 1072 1606.5C1072 1588.83 1065.83 1573.83 1053.5 1561.5C1041.17 1549.17 1026.17 1543 1008.5 1543Z" fill="black"/>
</svg>
