<svg width="2000" height="2000" viewBox="0 0 2000 2000" fill="none" xmlns="http://www.w3.org/2000/svg">
<path d="M1008.5 1543C990.833 1543 976 1549.17 964 1561.5C952 1573.83 946 1588.83 946 1606.5C946 1624.17 952 1639 964 1651C976 1663 990.833 1669 1008.5 1669C1026.17 1669 1041.17 1663 1053.5 1651C1065.83 1639 1072 1624.17 1072 1606.5C1072 1588.83 1065.83 1573.83 1053.5 1561.5C1041.17 1549.17 1026.17 1543 1008.5 1543ZM536 252C510 252 487.667 261.333 469 280C450.333 298.667 441 321 441 347L441 1733C441 1758.33 450.333 1780.33 469 1799C487.667 1817.67 510 1827 536 1827L1480 1827C1506.67 1827 1529.17 1817.67 1547.5 1799C1565.83 1780.33 1575 1758.33 1575 1733L1575 347C1575 321 1565.83 298.667 1547.5 280C1529.17 261.333 1506.67 252 1480 252L536 252ZM504 1733L504 347C504 338.333 507.167 330.833 513.5 324.5C519.833 318.167 527.333 315 536 315L1480 315C1488.67 315 1496.17 318.167 1502.5 324.5C1508.83 330.833 1512 338.333 1512 347L1512 1733C1512 1741 1508.83 1748.17 1502.5 1754.5C1496.17 1760.83 1488.67 1764 1480 1764L536 1764C527.333 1764 519.833 1760.83 513.5 1754.5C507.167 1748.17 504 1741 504 1733Z" fill="black"/>
</svg>
